<svg width="1260" height="1260" viewBox="0 0 1260 1260" fill="none" xmlns="http://www.w3.org/2000/svg">
<path d="M630 0C723.869 0 803.351 61.5886 830.246 146.561C909.348 105.493 1009.1 118.147 1075.48 184.522C1141.85 250.897 1154.51 350.65 1113.44 429.752C1198.41 456.647 1260 536.131 1260 630C1260 723.869 1198.41 803.352 1113.44 830.247C1154.51 909.349 1141.85 1009.1 1075.48 1075.48C1009.1 1141.85 909.349 1154.51 830.247 1113.44C803.352 1198.41 723.869 1260 630 1260C536.131 1260 456.647 1198.41 429.753 1113.44C350.651 1154.51 250.898 1141.85 184.522 1075.48C118.147 1009.1 105.494 909.349 146.562 830.247C61.5891 803.352 7.89945e-05 723.869 0 630C0.000158019 536.132 61.5885 456.648 146.561 429.753C105.494 350.651 118.147 250.898 184.522 184.522C250.898 118.147 350.651 105.494 429.753 146.561C456.648 61.5885 536.131 8.01137e-05 630 0ZM630 461C536.664 461 461 536.664 461 630C461 723.336 536.664 799 630 799C723.336 799 799 723.336 799 630C799 536.664 723.336 461 630 461Z" fill="#FF6D45"/>
</svg>
