<svg width="1292" height="1292" viewBox="0 0 1292 1292" fill="none" xmlns="http://www.w3.org/2000/svg">
<path d="M646 16L646 0L646 0L646 16ZM846.246 162.561L830.992 167.389L836.733 185.527L853.618 176.761L846.246 162.561ZM1091.48 200.522L1102.79 189.209L1102.79 189.209L1091.48 200.522ZM1129.44 445.752L1115.24 438.38L1106.47 455.265L1124.61 461.006L1129.44 445.752ZM1276 646L1292 646L1292 646L1276 646ZM1129.44 846.247L1124.61 830.993L1106.47 836.734L1115.24 853.619L1129.44 846.247ZM1091.48 1091.48L1102.79 1102.79L1102.79 1102.79L1091.48 1091.48ZM846.247 1129.44L853.619 1115.24L836.734 1106.47L830.993 1124.61L846.247 1129.44ZM646 1276L646 1292L646 1292L646 1276ZM445.753 1129.44L461.007 1124.61L455.266 1106.47L438.381 1115.24L445.753 1129.44ZM200.522 1091.48L189.209 1102.79L189.209 1102.79L200.522 1091.48ZM162.562 846.247L176.762 853.619L185.528 836.734L167.39 830.993L162.562 846.247ZM16 646L0 646L0 646L16 646ZM162.561 445.753L167.389 461.007L185.527 455.266L176.761 438.381L162.561 445.753ZM200.522 200.522L189.209 189.209L189.209 189.209L200.522 200.522ZM445.753 162.561L438.381 176.761L455.266 185.527L461.007 167.389L445.753 162.561ZM646 16V32C732.692 32 806.141 88.8757 830.992 167.389L846.246 162.561L861.5 157.732C832.561 66.3015 747.045 0 646 0V16ZM846.246 162.561L853.618 176.761C926.708 138.815 1018.86 150.535 1080.16 211.836L1091.48 200.522L1102.79 189.209C1031.34 117.759 923.989 104.171 838.874 148.36L846.246 162.561ZM1091.48 200.522L1080.16 211.836C1141.46 273.137 1153.18 365.291 1115.24 438.38L1129.44 445.752L1143.64 453.124C1187.83 368.01 1174.24 260.658 1102.79 189.209L1091.48 200.522ZM1129.44 445.752L1124.61 461.006C1203.12 485.856 1260 559.307 1260 646L1276 646L1292 646C1292 544.955 1225.7 459.437 1134.27 430.498L1129.44 445.752ZM1276 646L1260 646C1260 732.693 1203.12 806.142 1124.61 830.993L1129.44 846.247L1134.27 861.501C1225.7 832.562 1292 747.045 1292 646L1276 646ZM1129.44 846.247L1115.24 853.619C1153.18 926.709 1141.46 1018.86 1080.16 1080.16L1091.48 1091.48L1102.79 1102.79C1174.24 1031.34 1187.83 923.99 1143.64 838.875L1129.44 846.247ZM1091.48 1091.48L1080.16 1080.16C1018.86 1141.46 926.709 1153.18 853.619 1115.24L846.247 1129.44L838.875 1143.64C923.99 1187.83 1031.34 1174.24 1102.79 1102.79L1091.48 1091.48ZM846.247 1129.44L830.993 1124.61C806.143 1203.12 732.693 1260 646 1260L646 1276L646 1292C747.045 1292 832.562 1225.7 861.501 1134.27L846.247 1129.44ZM646 1276L646 1260C559.307 1260 485.857 1203.12 461.007 1124.61L445.753 1129.44L430.499 1134.27C459.438 1225.7 544.955 1292 646 1292L646 1276ZM445.753 1129.44L438.381 1115.24C365.291 1153.18 273.137 1141.46 211.836 1080.16L200.522 1091.48L189.209 1102.79C260.659 1174.24 368.01 1187.83 453.125 1143.64L445.753 1129.44ZM200.522 1091.48L211.836 1080.16C150.535 1018.86 138.816 926.709 176.762 853.619L162.562 846.247L148.361 838.875C104.172 923.989 117.759 1031.34 189.209 1102.79L200.522 1091.48ZM162.562 846.247L167.39 830.993C88.8762 806.143 32.0001 732.693 32 646L16 646L0 646C8.50337e-05 747.045 66.3019 832.562 157.733 861.501L162.562 846.247ZM16 646L32 646C32.0001 559.308 88.8757 485.858 167.389 461.007L162.561 445.753L157.732 430.499C66.3012 459.438 0.0001701 544.955 0 646L16 646ZM162.561 445.753L176.761 438.381C138.816 365.292 150.535 273.137 211.836 211.836L200.522 200.522L189.209 189.209C117.759 260.658 104.172 368.01 148.36 453.125L162.561 445.753ZM200.522 200.522L211.836 211.836C273.137 150.535 365.292 138.816 438.381 176.761L445.753 162.561L453.125 148.36C368.01 104.172 260.658 117.759 189.209 189.209L200.522 200.522ZM445.753 162.561L461.007 167.389C485.858 88.8757 559.308 32.0001 646 32L646 16L646 0C544.955 8.62383e-05 459.438 66.3013 430.499 157.732L445.753 162.561ZM646 477V461C543.827 461 461 543.827 461 646H477H493C493 561.5 561.5 493 646 493V477ZM477 646H461C461 748.173 543.827 831 646 831V815V799C561.5 799 493 730.5 493 646H477ZM646 815V831C748.173 831 831 748.173 831 646H815H799C799 730.5 730.5 799 646 799V815ZM815 646H831C831 543.827 748.173 461 646 461V477V493C730.5 493 799 561.5 799 646H815Z" fill="#FF6D45"/>
</svg>
