<svg width="1296" height="1296" viewBox="0 0 1296 1296" fill="none" xmlns="http://www.w3.org/2000/svg">
<path d="M648 18L648 0L648 0L648 18ZM848.246 164.561L831.085 169.992C832.689 175.058 836.449 179.157 841.358 181.19C846.267 183.224 851.824 182.984 856.54 180.536L848.246 164.561ZM1093.48 202.522L1106.21 189.795L1106.21 189.795L1093.48 202.522ZM1131.44 447.752L1115.46 439.458C1113.02 444.174 1112.78 449.731 1114.81 454.64C1116.84 459.55 1120.94 463.309 1126.01 464.913L1131.44 447.752ZM1278 648L1296 648L1296 648L1278 648ZM1131.44 848.247L1126.01 831.086C1120.94 832.69 1116.84 836.45 1114.81 841.359C1112.78 846.268 1113.02 851.825 1115.46 856.541L1131.44 848.247ZM1093.48 1093.48L1106.21 1106.21L1106.21 1106.21L1093.48 1093.48ZM848.247 1131.44L856.541 1115.46C851.825 1113.01 846.268 1112.78 841.359 1114.81C836.45 1116.84 832.69 1120.94 831.086 1126.01L848.247 1131.44ZM648 1278L648 1296L648 1296L648 1278ZM447.753 1131.44L464.914 1126.01C463.31 1120.94 459.551 1116.84 454.641 1114.81C449.732 1112.78 444.175 1113.01 439.459 1115.46L447.753 1131.44ZM202.522 1093.48L189.795 1106.21L189.795 1106.21L202.522 1093.48ZM164.562 848.247L180.537 856.541C182.985 851.825 183.225 846.268 181.191 841.359C179.158 836.45 175.059 832.69 169.993 831.086L164.562 848.247ZM18 648L0 648L0 648L18 648ZM164.561 447.753L169.992 464.914C175.058 463.31 179.157 459.55 181.19 454.641C183.224 449.732 182.984 444.175 180.536 439.459L164.561 447.753ZM202.522 202.522L189.795 189.795L189.795 189.795L202.522 202.522ZM447.753 164.561L439.459 180.536C444.175 182.984 449.732 183.224 454.641 181.19C459.55 179.157 463.31 175.058 464.914 169.992L447.753 164.561ZM648 18V36C733.795 36 806.49 92.2866 831.085 169.992L848.246 164.561L865.407 159.129C836.212 66.8906 749.942 0 648 0V18ZM848.246 164.561L856.54 180.536C928.878 142.98 1020.08 154.584 1080.75 215.25L1093.48 202.522L1106.21 189.795C1034.12 117.711 925.819 104.006 839.952 148.585L848.246 164.561ZM1093.48 202.522L1080.75 215.25C1141.42 275.917 1153.02 367.121 1115.46 439.458L1131.44 447.752L1147.41 456.046C1191.99 370.179 1178.29 261.878 1106.21 189.795L1093.48 202.522ZM1131.44 447.752L1126.01 464.913C1203.71 489.508 1260 562.204 1260 648L1278 648L1296 648C1296 546.058 1229.11 459.786 1136.87 430.591L1131.44 447.752ZM1278 648L1260 648C1260 733.796 1203.71 806.491 1126.01 831.086L1131.44 848.247L1136.87 865.408C1229.11 836.213 1296 749.942 1296 648L1278 648ZM1131.44 848.247L1115.46 856.541C1153.02 928.878 1141.42 1020.08 1080.75 1080.75L1093.48 1093.48L1106.21 1106.21C1178.29 1034.12 1191.99 925.82 1147.41 839.953L1131.44 848.247ZM1093.48 1093.48L1080.75 1080.75C1020.08 1141.42 928.879 1153.02 856.541 1115.46L848.247 1131.44L839.953 1147.41C925.82 1191.99 1034.12 1178.29 1106.21 1106.21L1093.48 1093.48ZM848.247 1131.44L831.086 1126.01C806.491 1203.71 733.796 1260 648 1260L648 1278L648 1296C749.942 1296 836.213 1229.11 865.408 1136.87L848.247 1131.44ZM648 1278L648 1260C562.204 1260 489.508 1203.71 464.914 1126.01L447.753 1131.44L430.592 1136.87C459.786 1229.11 546.058 1296 648 1296L648 1278ZM447.753 1131.44L439.459 1115.46C367.121 1153.02 275.917 1141.42 215.25 1080.75L202.522 1093.48L189.795 1106.21C261.879 1178.29 370.18 1191.99 456.047 1147.41L447.753 1131.44ZM202.522 1093.48L215.25 1080.75C154.584 1020.08 142.982 928.879 180.537 856.541L164.562 848.247L148.586 839.953C104.007 925.82 117.711 1034.12 189.795 1106.21L202.522 1093.48ZM164.562 848.247L169.993 831.086C92.2871 806.491 36.0001 733.796 36 648L18 648L0 648C8.57886e-05 749.942 66.891 836.213 159.13 865.408L164.562 848.247ZM18 648L36 648C36.0001 562.205 92.2867 489.509 169.992 464.914L164.561 447.753L159.129 430.592C66.8903 459.787 0.00017161 546.058 0 648L18 648ZM164.561 447.753L180.536 439.459C142.981 367.122 154.584 275.917 215.25 215.25L202.522 202.522L189.795 189.795C117.711 261.878 104.007 370.18 148.585 456.047L164.561 447.753ZM202.522 202.522L215.25 215.25C275.917 154.584 367.122 142.981 439.459 180.536L447.753 164.561L456.047 148.585C370.18 104.007 261.878 117.711 189.795 189.795L202.522 202.522ZM447.753 164.561L464.914 169.992C489.509 92.2866 562.205 36.0001 648 36L648 18L648 0C546.058 8.70039e-05 459.787 66.8904 430.592 159.129L447.753 164.561Z" fill="#FF6D45"/>
</svg>
